<svg xmlns="http://www.w3.org/2000/svg" viewBox="0 0 144 72"><style><![CDATA[.B{stroke-linejoin:round}.C{stroke-miterlimit:10}.D{stroke-width:2}.E{fill:#9b9b9a}.F{stroke-linecap:round}]]></style><g transform="matrix(1.02 0 0 1.02 8.1 0)"><path fill="#fff" d="M19 32h34v24H19z"/><g stroke="#000" class="B C D"><path fill="#a57939" d="M25 40h9v16h-9z"/><path fill="#92d3f5" d="M40 40h8v7h-8z"/><path fill="#ea5a47" d="M53 32H19v-1l16-16 18 16z"/><path fill="none" d="M19 32h34v24H19z"/><path fill="#ea5a47" d="M29 21l-5 5v-9h5z"/></g></g><g transform="matrix(.84 0 0 .84 65 5)"><path d="M9.5 22.9l4.8 6.4a3.12 3.12 0 0 1-3 2.2l-4.8-6.4c.3-1.4 1.6-2.4 3-2.2z" fill="#d0cfce"/><path fill="#010101" d="M41.7 38.5l5.1-6.5"/><path d="M42.9 27.8L18.4 58.1 24 62l21.8-27.3 2.3-2.8z" class="E"/><path fill="#010101" d="M43.4 29.3l-4.7 5.8"/><path d="M46.8 32c3.2 2.6 8.7 1.2 12.1-3.2s3.6-9.9.3-12.5l-5.1 6.5-2.8-.1-.7-2.7 5.1-6.5c-3.2-2.6-8.7-1.2-12.1 3.2s-3.6 9.9-.3 12.5" class="E"/><path fill="#a57939" d="M27.3 26l11.8 15.7 3.4 2.4 9.1 14.4-3.2 2.3-1 .7-10.2-13.6-1.3-3.9-11.8-15.7z"/><path d="M12 19.9l5.9 7.9 10.2-7.6-3.4-4.5s6.8-5.1 10.7-4.5c0 0-6.6-3-13.3 1.1S12 19.9 12 19.9z" class="E"/><g fill="none" stroke="#000" class="B C D"><path d="M52 58.9L40.9 43.2l-3.1-2.3-10.6-14.7-2.9 2.2 10.6 14.7 1.1 3.6 11.5 15.5zM12.5 19.8l5.8 8 10.3-7.4-3.3-4.6s6.9-5 10.8-4.3c0 0-6.6-3.1-13.3.9s-10.3 7.4-10.3 7.4zm-2.6 2.9l4.7 6.5c-.5 1.3-1.7 2.1-3 2.2l-4.7-6.5c.3-1.4 1.6-2.4 3-2.2z"/><path d="M41.3 38.5l5.1-6.5m-3.5-2.7l-4.6 5.8m8.1-3.1c3.2 2.6 8.7 1.2 12.1-3.2s3.6-9.9.3-12.5l-5.1 6.5-2.8-.1-.8-2.7 5.1-6.5c-3.2-2.6-8.7-1.2-12.1 3.2-3.4 4.3-3.6 9.9-.3 12.5" class="F"/><path d="M30.8 44.4L19 58.9l4 3 10-12.7" class="F"/></g></g></svg>